<svg xmlns="http://www.w3.org/2000/svg" width="102" height="102" viewBox="0 0 102 102" version="1.1"><path d="M 1.250 1.496 L 0 2.916 0 11.374 L 0 19.833 1.250 20.417 L 2.500 21 1.250 21.583 L -0 22.167 -0 31 L -0 39.833 1.250 40.417 L 2.500 41 1.250 41.583 L -0 42.167 0 51 L 0 59.833 1.250 60.417 L 2.500 61 1.250 61.583 L -0 62.167 0 71 L 0 79.833 1.250 80.417 L 2.500 81 1.250 81.583 L -0 82.167 -0 90.655 L -0 99.143 1.429 100.571 L 2.857 102 11.345 102 L 19.833 102 20.417 100.750 L 21 99.500 21.583 100.750 L 22.167 102 31 102 L 39.833 102 40.417 100.750 L 41 99.500 41.583 100.750 L 42.167 102 51 102 L 59.833 102 60.417 100.750 L 61 99.500 61.583 100.750 L 62.167 102 71 102 L 79.833 102 80.417 100.750 L 81 99.500 81.583 100.750 L 82.167 102 90.572 102 L 98.977 102 100.989 100.278 L 103 98.556 103 89.809 L 103 81.063 101.500 81.638 L 100 82.214 100 81.214 L 100 80.214 101.500 79.638 L 103 79.063 103 70.063 L 103 61.063 101.500 61.638 L 100 62.214 100 61.214 L 100 60.214 101.500 59.638 L 103 59.063 103 50.063 L 103 41.063 101.500 41.638 L 100 42.214 100 41.214 L 100 40.214 101.500 39.638 L 103 39.063 103 30.063 L 103 21.063 101.500 21.638 L 100 22.214 100 21.214 L 100 20.214 101.500 19.638 L 103 19.063 103 10.063 L 103 1.063 101.500 1.638 L 100 2.214 100 1.107 L 100 0 91.083 -0 L 82.167 -0 81.583 1.250 L 81 2.500 80.417 1.250 L 79.833 0 71 0 L 62.167 0 61.583 1.250 L 61 2.500 60.417 1.250 L 59.833 -0 51 -0 L 42.167 -0 41.583 1.250 L 41 2.500 40.417 1.250 L 39.833 0 31 0 L 22.167 0 21.583 1.250 L 21 2.500 20.417 1.250 L 19.833 0 11.167 0.038 L 2.500 0.076 1.250 1.496 M 0.360 11 L 0.360 20.500 0.735 15.750 L 1.110 11 0.735 6.250 L 0.360 1.500 0.360 11 M 2 11 L 2 20 11 20 L 20 20 20 11 L 20 2 11 2 L 2 2 2 11 M 22 10.571 L 22 19.143 20.571 20.571 L 19.143 22 10.571 22 L 2 22 2 31 L 2 40 11 40 L 20 40 20 31.429 L 20 22.857 21.429 21.429 L 22.857 20 31.429 20 L 40 20 40 11 L 40 2 31 2 L 22 2 22 10.571 M 42 11 L 42 20 51 20 L 60 20 60 11 L 60 2 51 2 L 42 2 42 11 M 62 11 L 62 20 71 20 L 80 20 80 11 L 80 2 71 2 L 62 2 62 11 M 82 10.571 L 82 19.143 80.571 20.571 L 79.143 22 70.571 22 L 62 22 62 31 L 62 40 71 40 L 80 40 80 31.429 L 80 22.857 81.429 21.429 L 82.857 20 91.429 20 L 100 20 100 11 L 100 2 91 2 L 82 2 82 10.571 M 40.500 31 L 40.500 41.500 50.500 41.500 L 60.500 41.500 60.500 51 L 60.500 60.500 40.500 60.500 L 20.500 60.500 20.500 71 L 20.500 81.500 51 81.500 L 81.500 81.500 81.500 61 L 81.500 40.500 71.500 40.500 L 61.500 40.500 61.500 30.500 L 61.500 20.500 51 20.500 L 40.500 20.500 40.500 31 M 0.360 31 L 0.360 40.500 0.735 35.750 L 1.110 31 0.735 26.250 L 0.360 21.500 0.360 31 M 22 30.571 L 22 39.143 20.571 40.571 L 19.143 42 10.571 42 L 2 42 2 51 L 2 60 11 60 L 20 60 20 51.429 L 20 42.857 21.429 41.429 L 22.857 40 31.429 40 L 40 40 40 31 L 40 22 31 22 L 22 22 22 30.571 M 82 31 L 82 40 91 40 L 100 40 100 31 L 100 22 91 22 L 82 22 82 31 M 0.360 51 L 0.360 60.500 0.735 55.750 L 1.110 51 0.735 46.250 L 0.360 41.500 0.360 51 M 22 51 L 22 60 31 60 L 40 60 40 51 L 40 42 31 42 L 22 42 22 51 M 42 51 L 42 60 51 60 L 60 60 60 51 L 60 42 51 42 L 42 42 42 51 M 82 51 L 82 60 91 60 L 100 60 100 51 L 100 42 91 42 L 82 42 82 51 M 0.360 71 L 0.360 80.500 0.735 75.750 L 1.110 71 0.735 66.250 L 0.360 61.500 0.360 71 M 2 71 L 2 80 11 80 L 20 80 20 71 L 20 62 11 62 L 2 62 2 71 M 82 71 L 82 80 91 80 L 100 80 100 71 L 100 62 91 62 L 82 62 82 71 M 0.360 91 L 0.360 100.500 0.735 95.750 L 1.110 91 0.735 86.250 L 0.360 81.500 0.360 91 M 2 91 L 2 100 11 100 L 20 100 20 91 L 20 82 11 82 L 2 82 2 91 M 22 91 L 22 100 31 100 L 40 100 40 91 L 40 82 31 82 L 22 82 22 91 M 42 91 L 42 100 51 100 L 60 100 60 91 L 60 82 51 82 L 42 82 42 91 M 62 91 L 62 100 71 100 L 80 100 80 91 L 80 82 71 82 L 62 82 62 91 M 82 91 L 82 100 91 100 L 100 100 100 91 L 100 82 91 82 L 82 82 82 91" stroke="none" fill="#f2f2f2" fill-rule="evenodd"/><path d="M 0 1 L 0 2 1 2 L 2 2 2 1 L 2 0 1 0 L 0 0 0 1 M 20 1 L 20 2 21 2 L 22 2 22 1 L 22 0 21 0 L 20 0 20 1 M 40 1 L 40 2 41 2 L 42 2 42 1 L 42 0 41 0 L 40 0 40 1 M 60 1 L 60 2 61 2 L 62 2 62 1 L 62 0 61 0 L 60 0 60 1 M 80 1 L 80 2 81 2 L 82 2 82 1 L 82 0 81 0 L 80 0 80 1 M 100 1 L 100 2 101 2 L 102 2 102 1 L 102 0 101 0 L 100 0 100 1 M 0 21 L 0 22 1 22 L 2 22 2 21 L 2 20 1 20 L 0 20 0 21 M 20 21 L 20 22 21 22 L 22 22 22 21 L 22 20 21 20 L 20 20 20 21 M 40 21.059 L 40 22.118 41 21.500 L 42 20.882 42 20.441 L 42 20 41 20 L 40 20 40 21.059 M 60.500 21 L 61.118 22 61.559 22 L 62 22 62 21 L 62 20 60.941 20 L 59.882 20 60.500 21 M 80 21 L 80 22 81 22 L 82 22 82 21 L 82 20 81 20 L 80 20 80 21 M 100 21 L 100 22 101 22 L 102 22 102 21 L 102 20 101 20 L 100 20 100 21 M 0 41 L 0 42 1 42 L 2 42 2 41 L 2 40 1 40 L 0 40 0 41 M 20 41 L 20 42 21 42 L 22 42 22 41 L 22 40 21 40 L 20 40 20 41 M 40 41 L 40 42 41.059 42 L 42.118 42 41.500 41 L 40.882 40 40.441 40 L 40 40 40 41 M 60.405 41.155 L 59.691 42.309 60.845 41.595 L 62 40.882 62 40.441 L 62 40 61.559 40 L 61.118 40 60.405 41.155 M 80.500 41 L 81.118 42 81.559 42 L 82 42 82 41 L 82 40 80.941 40 L 79.882 40 80.500 41 M 100 41 L 100 42 101 42 L 102 42 102 41 L 102 40 101 40 L 100 40 100 41 M 0 61 L 0 62 1 62 L 2 62 2 61 L 2 60 1 60 L 0 60 0 61 M 20 61.059 L 20 62.118 21 61.500 L 22 60.882 22 60.441 L 22 60 21 60 L 20 60 20 61.059 M 40.333 60.667 L 41 61.333 41.667 60.667 L 42.333 60 41 60 L 39.667 60 40.333 60.667 M 81 61 L 81 62.333 81.667 61.667 L 82.333 61 81.667 60.333 L 81 59.667 81 61 M 100 61 L 100 62 101 62 L 102 62 102 61 L 102 60 101 60 L 100 60 100 61 M 0 81 L 0 82 1 82 L 2 82 2 81 L 2 80 1 80 L 0 80 0 81 M 20 81 L 20 82 21.059 82 L 22.118 82 21.500 81 L 20.882 80 20.441 80 L 20 80 20 81 M 80.500 81 L 79.882 82 80.941 82 L 82 82 82 81 L 82 80 81.559 80 L 81.118 80 80.500 81 M 100 81 L 100 82 101 82 L 102 82 102 81 L 102 80 101 80 L 100 80 100 81 M 40.333 81.667 L 41 82.333 41.667 81.667 L 42.333 81 41 81 L 39.667 81 40.333 81.667 M 60.333 81.667 L 61 82.333 61.667 81.667 L 62.333 81 61 81 L 59.667 81 60.333 81.667 M 0 101 L 0 102 1 102 L 2 102 2 101 L 2 100 1 100 L 0 100 0 101 M 20 101 L 20 102 21 102 L 22 102 22 101 L 22 100 21 100 L 20 100 20 101 M 40 101 L 40 102 41 102 L 42 102 42 101 L 42 100 41 100 L 40 100 40 101 M 60 101 L 60 102 61 102 L 62 102 62 101 L 62 100 61 100 L 60 100 60 101 M 80 101 L 80 102 81 102 L 82 102 82 101 L 82 100 81 100 L 80 100 80 101 M 100 101 L 100 102 101 102 L 102 102 102 101 L 102 100 101 100 L 100 100 100 101" stroke="none" fill="#e6e6e6" fill-rule="evenodd"/><path d="M 41 31 L 41 41 51 41 L 61 41 61 51 L 61 61 41 61 L 21 61 21 71 L 21 81 51 81 L 81 81 81 61 L 81 41 71 41 L 61 41 61 31 L 61 21 51 21 L 41 21 41 31" stroke="none" fill="#000000" fill-rule="evenodd"/><path d="M 2 11 L 2 20 11 20 L 20 20 20 11 L 20 2 11 2 L 2 2 2 11 M 22 11 L 22 20 31 20 L 40 20 40 11 L 40 2 31 2 L 22 2 22 11 M 42 11 L 42 20 51 20 L 60 20 60 11 L 60 2 51 2 L 42 2 42 11 M 62 11 L 62 20 71 20 L 80 20 80 11 L 80 2 71 2 L 62 2 62 11 M 82 11 L 82 20 91 20 L 100 20 100 11 L 100 2 91 2 L 82 2 82 11 M 2 31 L 2 40 11 40 L 20 40 20 31 L 20 22 11 22 L 2 22 2 31 M 22 31 L 22 40 31 40 L 40 40 40 31 L 40 22 31 22 L 22 22 22 31 M 62 31 L 62 40 71 40 L 80 40 80 31 L 80 22 71 22 L 62 22 62 31 M 82 31 L 82 40 91 40 L 100 40 100 31 L 100 22 91 22 L 82 22 82 31 M 2 51 L 2 60 11 60 L 20 60 20 51 L 20 42 11 42 L 2 42 2 51 M 22 51 L 22 60 31 60 L 40 60 40 51 L 40 42 31 42 L 22 42 22 51 M 42 51 L 42 60 51 60 L 60 60 60 51 L 60 42 51 42 L 42 42 42 51 M 82 51 L 82 60 91 60 L 100 60 100 51 L 100 42 91 42 L 82 42 82 51 M 2 71 L 2 80 11 80 L 20 80 20 71 L 20 62 11 62 L 2 62 2 71 M 82 71 L 82 80 91 80 L 100 80 100 71 L 100 62 91 62 L 82 62 82 71 M 2 91 L 2 100 11 100 L 20 100 20 91 L 20 82 11 82 L 2 82 2 91 M 22 91 L 22 100 31 100 L 40 100 40 91 L 40 82 31 82 L 22 82 22 91 M 42 91 L 42 100 51 100 L 60 100 60 91 L 60 82 51 82 L 42 82 42 91 M 62 91 L 62 100 71 100 L 80 100 80 91 L 80 82 71 82 L 62 82 62 91 M 82 91 L 82 100 91 100 L 100 100 100 91 L 100 82 91 82 L 82 82 82 91" stroke="none" fill="#ffffff" fill-rule="evenodd"/></svg>